<?xml version="1.0" encoding="utf-8"?>
<!-- Generator: Adobe Illustrator 17.0.0, SVG Export Plug-In . SVG Version: 6.00 Build 0)  -->
<!DOCTYPE svg PUBLIC "-//W3C//DTD SVG 1.1//EN" "http://www.w3.org/Graphics/SVG/1.1/DTD/svg11.dtd">
<svg version="1.1" xmlns="http://www.w3.org/2000/svg" xmlns:xlink="http://www.w3.org/1999/xlink" x="0px" y="0px"
	 width="378.273px" height="230.333px" viewBox="0 0 378.273 230.333" enable-background="new 0 0 378.273 230.333"
	 xml:space="preserve">
<g id="Layer_2">
</g>
<g id="Layer_1">
	<g>
		<g>
			<path fill="#FFFFFF" d="M89.08,61.828c-15.236-8.654-36.508-18.75-49.257-29.498c-4.903-4.135-8.535-8.375-10.074-12.681
				c-0.545,0.417-1.083,0.842-1.6,1.28c-3.052,2.586-5.435,6.463-6.258,10.952c-0.786,4.284-0.066,9.295,2.834,13.702
				c0.322,0.443,0.661,0.884,1.013,1.321c1.347,1.67,2.871,3.343,4.597,4.958C48.043,68.44,69.852,80.606,88.33,89.81
				c12.877,6.414,20.02,13.549,23.063,24.205c4.204-19.792-0.016-29.549-3.683-35.487C101.001,67.661,90.142,62.43,89.08,61.828z"/>
			<g>
				<path fill="#FFFFFF" d="M110.381,132.056c-4.642-11.032-11.563-17.168-21.501-22.622c-15.806-8.678-38.653-21.785-55.646-37.42
					c-5.633-5.184-10.672-9.928-13.223-15.341c-0.005,0.003-0.01,0.008-0.014,0.012c-4.717,4.63-8.022,11.075-8.158,17.088
					c-0.102,4.595,0.596,8.931,4.752,16.048c15.393,26.095,64.22,46.59,76.085,53.98c8.815,5.495,16.213,13.333,18.728,25.62
					C113.642,155.569,114.142,140.992,110.381,132.056z"/>
				<path fill="#FFFFFF" d="M68.578,19.282c1.918,5.811-6.117,10.725-10.243,13.257c-10.699,6.566-26.342,12.38-38.325,24.134
					c-0.005,0.003-0.01,0.008-0.014,0.012c-4.717,4.63-8.022,11.075-8.158,17.088c-0.102,4.595,0.596,8.931,4.752,16.048
					c0.008-5.43,5.537-13.75,15.951-19.897c11.116-6.559,30.214-15.937,42.006-29.491C81.745,32.162,77.383,22.076,68.578,19.282z"
					/>
			</g>
			<path fill="#FFFFFF" d="M55.709,0c0.825,4.79-4.301,7.516-7.942,9.358c-5.352,2.707-12.22,5.852-18.017,10.289
				c-0.545,0.417-1.083,0.842-1.6,1.28c-3.052,2.586-5.435,6.463-6.258,10.952c-0.786,4.284-0.066,9.295,2.834,13.702
				c0.322,0.443,0.661,0.884,1.013,1.321c0.243-6.841,5.511-11.553,13.583-15.704c8.401-4.319,16.067-9.905,20.709-14.82
				C65.701,10.375,61.136,1.111,55.709,0z"/>
			<path fill="#FFFFFF" d="M86.179,159.439c-18.025-11.465-46.268-21.892-62.66-37.677c-6.831-6.577-13.183-11.427-15.413-16.779
				c-0.075,0.089-0.149,0.178-0.226,0.267c-10.322,14.214-9.663,26.236-2.867,36.693c11.411,17.556,40.033,30.822,63.022,42.348
				c11.291,5.665,21.455,11.809,29.662,21.48c5.502,6.479,10.363,14.293,13.707,24.561c2.532-14.036,2.377-32.472-1.134-42.439
				C106.949,178.458,100.184,168.35,86.179,159.439z"/>
			<path fill="#FFFFFF" d="M85.602,41.625c2.063,5.661-3.729,11.304-10.907,16.682c-17.098,12.811-50.89,28.585-66.589,46.677
				c-0.075,0.089-0.149,0.178-0.226,0.267c-10.322,14.214-9.663,26.236-2.867,36.693c0.012-5.524,8.079-12.994,18.39-21.376
				c18.603-15.124,51.219-28.449,69.789-52.355C99.929,59.54,95.476,45.646,85.602,41.625z"/>
		</g>
		<g>
			<g>
				<path fill="#FFFFFF" d="M188.068,90.32v40.048h4.561v18.27h-16.361v-6.08h-24.322v6.08h-16.363v-18.27h4.127
					c3.62-7.035,4.706-14.947,4.706-26.626V90.32H188.068z M160.778,102.508v5.661c0,8.636-0.943,16.76-4.272,22.2h14.477v-27.86
					H160.778z"/>
				<path fill="#FFFFFF" d="M202.693,90.32h24.904c11.727,0,21.064,2.757,21.064,13.133c0,5.369-3.473,9.287-6.807,11.39
					c5.648,1.451,8.689,6.311,8.689,11.973c0,11.678-8.904,15.742-22.44,15.742h-25.411V90.32z M219.777,111.216h7.097
					c3.401,0,5.862-1.524,5.862-4.572c0-4.062-3.33-4.135-6.948-4.135h-6.011V111.216z M219.777,130.369h7.457
					c4.199,0,7.387-0.871,7.387-4.785c0-4.572-3.984-4.865-9.412-4.865h-5.432V130.369z"/>
				<path fill="#FFFFFF" d="M298.964,90.32v6.021h3.982c15.2,0,22.006,8.853,22.006,19.591c0,11.245-6.806,19.442-21.787,19.442
					h-4.201v7.184H281.88v-7.184h-4.199c-14.983,0-21.787-8.197-21.787-19.442c0-10.738,6.804-19.591,22.004-19.591h3.982V90.32
					H298.964z M281.88,108.531h-2.314c-5.285,0-7.313,2.393-7.313,7.255c0,4.5,1.957,7.401,6.371,7.401h3.257V108.531z
					 M298.964,123.187h3.257c4.417,0,6.37-2.9,6.37-7.401c0-4.862-2.098-7.255-7.383-7.255h-2.244V123.187z"/>
				<path fill="#FFFFFF" d="M343.308,90.32l8.323,20.604l8.253-20.604h18.389l-19.257,40.775
					c-4.417,9.359-8.774,12.486-15.348,12.842c-2.815,0.152-6.697-0.213-11.276-1.514v-11.979c3.063,0.559,4.852,0.992,6.788,0.723
					c1.684-0.236,3.041-0.799,4.056-2.902L324.05,90.32H343.308z"/>
			</g>
			<g>
				<g>
					<path fill="#FFFFFF" d="M148.836,156.616v10.936h1.244v5.804h-4.468v-2.476h-6.644v2.476H134.5v-5.804h1.126
						c0.992-1.922,1.288-4.084,1.288-7.274v-3.662H148.836z M141.381,159.944v1.544c0,2.36-0.256,4.579-1.167,6.064h3.955v-7.608
						H141.381z"/>
					<path fill="#FFFFFF" d="M160.922,156.616l5.102,14.265h-4.648l-0.554-1.88h-4.646l-0.534,1.88h-4.566l5.101-14.265H160.922z
						 M160.011,166.024l-1.502-5.109l-1.443,5.109H160.011z"/>
					<path fill="#FFFFFF" d="M182.115,156.616v14.265h-4.664v-10.936h-3.343v4.061c0,5.748-1.798,7.174-4.466,7.174
						c-0.971,0-1.603-0.08-2.533-0.298v-3.328c0.276,0.1,0.532,0.14,1.069,0.14c0.927,0,1.463-0.378,1.463-3.727v-7.35H182.115z"/>
					<path fill="#FFFFFF" d="M189.027,161.587h2.213c3.601,0,5.873,1.625,5.873,4.735c0,3.049-2.234,4.558-5.932,4.558h-6.821
						v-14.265h4.667V161.587z M189.027,167.552h1.72c1.146,0,2.016-0.238,2.016-1.308c0-1.249-1.087-1.329-2.569-1.329h-1.166
						V167.552z"/>
					<path fill="#FFFFFF" d="M203.582,161.587h4.41v-4.972h4.666v14.265h-4.666v-5.965h-4.41v5.965h-4.666v-14.265h4.666V161.587z"
						/>
					<path fill="#FFFFFF" d="M227.033,156.616v3.328h-6.939v2.039h5.87v3.329h-5.87v2.24h7.217v3.328h-11.884v-14.265H227.033z"/>
					<path fill="#FFFFFF" d="M229.583,156.616h6.801c3.204,0,5.753,0.751,5.753,3.584c0,1.468-0.949,2.536-1.857,3.112
						c1.543,0.397,2.373,1.724,2.373,3.268c0,3.192-2.433,4.301-6.129,4.301h-6.94V156.616z M234.249,162.319h1.938
						c0.931,0,1.602-0.414,1.602-1.247c0-1.108-0.91-1.128-1.898-1.128h-1.642V162.319z M234.249,167.552h2.036
						c1.149,0,2.016-0.238,2.016-1.308c0-1.249-1.087-1.329-2.57-1.329h-1.481V167.552z"/>
					<path fill="#FFFFFF" d="M259.24,163.667c0,4.857-3.262,7.591-7.473,7.591c-4.469,0-7.453-2.776-7.453-7.63
						c0-4.479,3.024-7.394,7.453-7.394C256.847,156.235,259.24,159.901,259.24,163.667z M248.978,163.667
						c0,1.822,0.555,4.104,2.789,4.104c2.016,0,2.807-1.748,2.807-4.104c0-1.94-0.77-3.942-2.848-3.942
						C249.611,159.725,248.978,161.866,248.978,163.667z"/>
					<path fill="#FFFFFF" d="M271.2,162.063c-0.14-1.487-1.067-2.338-2.53-2.338c-1.643,0-2.629,1.407-2.629,4.16
						c0,2.004,0.438,3.887,2.808,3.887c1.501,0,2.212-1.054,2.393-2.419h4.489c-0.419,3.687-3.049,5.905-6.804,5.905
						c-4.705,0-7.552-2.894-7.552-7.529c0-4.618,3.123-7.494,7.098-7.494c4.35,0,6.78,2.163,7.158,5.828H271.2z"/>
					<path fill="#FFFFFF" d="M285.815,170.88h-4.667v-10.936h-4.192v-3.328h13.05v3.328h-4.19V170.88z"/>
					<path fill="#FFFFFF" d="M305.967,163.667c0,4.857-3.263,7.591-7.474,7.591c-4.469,0-7.455-2.776-7.455-7.63
						c0-4.479,3.023-7.394,7.455-7.394C303.575,156.235,305.967,159.901,305.967,163.667z M295.705,163.667
						c0,1.822,0.554,4.104,2.789,4.104c2.017,0,2.809-1.748,2.809-4.104c0-1.94-0.773-3.942-2.85-3.942
						C296.338,159.725,295.705,161.866,295.705,163.667z"/>
					<path fill="#FFFFFF" d="M312.328,156.616v3.684c0,1.13,0.652,1.645,1.777,1.645c0.911,0,1.701-0.117,2.117-0.259v-5.069h4.665
						v14.265h-4.665v-5.767c-0.828,0.198-1.422,0.317-3.895,0.317c-2.096,0-4.666-1.308-4.666-4.398v-4.417H312.328z"/>
					<path fill="#FFFFFF" d="M328.322,161.587h4.408v-4.972h4.669v14.265h-4.669v-5.965h-4.408v5.965h-4.664v-14.265h4.664V161.587z
						"/>
					<path fill="#FFFFFF" d="M344.833,161.587h2.215c3.6,0,5.873,1.625,5.873,4.735c0,3.049-2.236,4.558-5.933,4.558h-6.823v-14.265
						h4.668V161.587z M344.833,167.552h1.72c1.147,0,2.019-0.238,2.019-1.308c0-1.249-1.09-1.329-2.572-1.329h-1.166V167.552z
						 M359.601,170.88h-4.663v-14.265h4.663V170.88z"/>
					<path fill="#FFFFFF" d="M376.111,156.616v14.265h-4.469v-4.537l0.238-3.646l-5.142,8.184h-4.369v-14.265h4.469v4.536
						l-0.238,3.645l5.14-8.181H376.111z M367.371,152.532c0.143,1.11,1.209,1.229,2.115,1.229c1.227,0,1.821-0.378,1.96-1.229h1.544
						c-0.08,2.041-1.722,3.03-3.621,3.03c-2.076,0-3.401-0.831-3.56-3.03H367.371z"/>
				</g>
			</g>
			<g>
				<g>
					<path fill="#FFFFFF" d="M150.931,179.445v2.209h1.463c5.584,0,8.082,3.25,8.082,7.195c0,4.131-2.497,7.143-8.002,7.143h-1.542
						v2.639h-6.276v-2.639h-1.541c-5.503,0-8.004-3.012-8.004-7.143c0-3.945,2.501-7.195,8.084-7.195h1.461v-2.209H150.931z
						 M144.654,186.131h-0.85c-1.94,0-2.683,0.88-2.683,2.665c0,1.651,0.716,2.718,2.335,2.718h1.198V186.131z M150.931,191.514
						h1.196c1.622,0,2.341-1.066,2.341-2.718c0-1.785-0.773-2.665-2.714-2.665h-0.823V191.514z"/>
					<path fill="#FFFFFF" d="M178.36,179.445v4.474h-9.333v2.745h7.895v4.479h-7.895v3.008h9.707v4.479h-15.982v-19.186H178.36z"/>
					<path fill="#FFFFFF" d="M200.492,179.445v14.706h1.677v7.236h-6.013v-2.757h-8.933v2.757h-6.007v-7.236h1.514
						c1.329-2.584,1.729-5.485,1.729-9.779v-4.927H200.492z M190.466,183.918v2.08c0,3.17-0.344,6.156-1.568,8.152h5.32v-10.232
						H190.466z"/>
					<path fill="#FFFFFF" d="M220.599,179.445v4.474h-9.334v2.745h7.898v4.479h-7.898v3.008h9.705v4.479h-15.98v-19.186H220.599z"/>
					<path fill="#FFFFFF" d="M230.033,198.63h-6.273v-19.186h9.223c5.506,0,8.164,2.528,8.164,6.474
						c0,4.131-2.445,6.741-7.949,6.741h-3.164V198.63z M230.033,188.184h2.606c1.462,0,2.524-0.585,2.524-2.238
						c0-1.787-2.02-2.027-3.35-2.027h-1.781V188.184z"/>
					<path fill="#FFFFFF" d="M252.943,179.445l6.859,19.186h-6.25l-0.744-2.532h-6.246l-0.719,2.532h-6.143l6.861-19.186H252.943z
						 M251.72,192.1l-2.023-6.875l-1.938,6.875H251.72z"/>
					<path fill="#FFFFFF" d="M281.802,179.445v19.186h-6.276v-14.712h-4.495v5.465c0,7.726-2.418,9.643-6.008,9.643
						c-1.303,0-2.152-0.102-3.404-0.396v-4.479c0.372,0.135,0.721,0.189,1.438,0.189c1.25,0,1.967-0.507,1.967-5.014v-9.882H281.802
						z"/>
					<path fill="#FFFFFF" d="M291.798,186.131h2.978c4.838,0,7.897,2.184,7.897,6.37c0,4.104-3.004,6.129-7.977,6.129h-9.173
						v-19.186h6.274V186.131z M291.798,194.151h2.314c1.54,0,2.711-0.317,2.711-1.758c0-1.679-1.461-1.786-3.457-1.786h-1.568
						V194.151z"/>
					<path fill="#FFFFFF" d="M311.845,186.131h5.929v-6.687h6.276v19.186h-6.276v-8.023h-5.929v8.023h-6.275v-19.186h6.275V186.131z
						"/>
					<path fill="#FFFFFF" d="M334.047,186.131h2.979c4.839,0,7.897,2.184,7.897,6.37c0,4.104-3.006,6.129-7.978,6.129h-9.173
						v-19.186h6.273V186.131z M334.047,194.151h2.315c1.539,0,2.711-0.317,2.711-1.758c0-1.679-1.463-1.786-3.457-1.786h-1.569
						V194.151z M353.911,198.63h-6.274v-19.186h6.274V198.63z"/>
					<path fill="#FFFFFF" d="M376.111,179.445v19.186h-6.009v-6.104l0.319-4.902l-6.917,11.006h-5.872v-19.186h6.011v6.1
						l-0.319,4.903l6.911-11.003H376.111z M364.359,173.954c0.185,1.491,1.624,1.651,2.844,1.651c1.651,0,2.449-0.505,2.633-1.651
						h2.078c-0.107,2.741-2.316,4.076-4.866,4.076c-2.794,0-4.576-1.119-4.791-4.076H364.359z"/>
				</g>
			</g>
			<g>
				<g>
					<path fill="#FFFFFF" d="M142.273,208.087l3.289,8.139l3.257-8.139h7.264l-7.606,16.105c-1.741,3.694-3.489,5.07-6.058,5.07
						c-1.118,0-2.403-0.316-3.176-0.63v-4.7c0.4,0.145,0.629,0.287,1.401,0.287c0.715,0,1.203-0.314,1.602-1.146l-7.577-14.986
						H142.273z"/>
					<path fill="#FFFFFF" d="M165.121,215.281h6.373v-7.193h6.75v20.632h-6.75v-8.624h-6.373v8.624h-6.748v-20.632h6.748V215.281z"
						/>
					<path fill="#FFFFFF" d="M202.121,208.087v20.632h-6.463v-6.561l0.344-5.273l-7.434,11.834h-6.318v-20.632h6.46v6.563
						l-0.341,5.271l7.432-11.834H202.121z"/>
					<path fill="#FFFFFF" d="M206.127,208.087h9.834c4.633,0,8.32,1.089,8.32,5.19c0,2.117-1.371,3.664-2.688,4.495
						c2.229,0.572,3.431,2.492,3.431,4.728c0,4.618-3.518,6.219-8.864,6.219h-10.033V208.087z M212.875,216.341h2.799
						c1.346,0,2.316-0.602,2.316-1.806c0-1.605-1.314-1.637-2.743-1.637h-2.372V216.341z M212.875,223.906h2.943
						c1.658,0,2.917-0.346,2.917-1.889c0-1.807-1.572-1.922-3.716-1.922h-2.145V223.906z"/>
					<path fill="#FFFFFF" d="M245.097,208.087v4.811h-10.035v2.956h8.492v4.812h-8.492v3.239h10.437v4.813h-17.184v-20.632H245.097z
						"/>
					<path fill="#FFFFFF" d="M255.537,228.719h-6.747v-20.632h9.922c5.915,0,8.775,2.722,8.775,6.965c0,4.441-2.632,7.25-8.547,7.25
						h-3.403V228.719z M255.537,217.488h2.801c1.574,0,2.717-0.632,2.717-2.406c0-1.922-2.172-2.183-3.603-2.183h-1.915V217.488z"/>
					<path fill="#FFFFFF" d="M283.931,215.968c-0.202-2.148-1.545-3.382-3.659-3.382c-2.374,0-3.804,2.033-3.804,6.018
						c0,2.893,0.63,5.616,4.062,5.616c2.173,0,3.199-1.519,3.458-3.495h6.49c-0.602,5.333-4.404,8.538-9.837,8.538
						c-6.804,0-10.919-4.184-10.919-10.89c0-6.676,4.516-10.828,10.262-10.828c6.291,0,9.809,3.121,10.352,8.423H283.931z"/>
					<path fill="#FFFFFF" d="M313.209,208.087v20.632h-6.459v-6.561l0.343-5.273l-7.434,11.834h-6.319v-20.632h6.462v6.563
						l-0.342,5.271l7.433-11.834H313.209z"/>
					<path fill="#FFFFFF" d="M328.91,228.719h-6.748v-15.82h-6.061v-4.811h18.87v4.811h-6.062V228.719z"/>
					<path fill="#FFFFFF" d="M354.645,208.087v4.811H344.61v2.956h8.493v4.812h-8.493v3.239h10.436v4.813h-17.184v-20.632H354.645z"
						/>
					<path fill="#FFFFFF" d="M370.03,228.719h-6.745v-15.82h-6.063v-4.811h18.87v4.811h-6.062V228.719z"/>
				</g>
			</g>
		</g>
	</g>
</g>
</svg>
